<svg width="1600" height="900" viewBox="0 0 1600 900" fill="none" xmlns="http://www.w3.org/2000/svg" preserveAspectRatio="xMidYMid slice" role="img" aria-labelledby="title desc">
  <title id="title">Datamitra Hero Background</title>
  <desc id="desc">Abstract teal and amber orbital lines with subtle dots.</desc>
  <defs>
    <linearGradient id="orbTeal" x1="200" y1="60" x2="1300" y2="780" gradientUnits="userSpaceOnUse">
      <stop stop-color="#2DD4BF" stop-opacity="0.32"/>
      <stop offset="1" stop-color="#0F766E" stop-opacity="0.08"/>
    </linearGradient>
    <linearGradient id="orbAmber" x1="1300" y1="80" x2="280" y2="760" gradientUnits="userSpaceOnUse">
      <stop stop-color="#F59E0B" stop-opacity="0.28"/>
      <stop offset="1" stop-color="#FBBF24" stop-opacity="0.03"/>
    </linearGradient>
  </defs>

  <rect width="1600" height="900" fill="transparent"/>

  <g opacity="0.9">
    <path d="M-120 540C220 140 540 80 950 320C1260 500 1450 470 1720 250" stroke="url(#orbTeal)" stroke-width="2.4"/>
    <path d="M-60 690C260 300 600 210 930 400C1220 565 1440 560 1700 380" stroke="url(#orbTeal)" stroke-width="1.6"/>
    <path d="M10 240C350 20 680 50 1000 220C1280 370 1430 340 1660 180" stroke="url(#orbAmber)" stroke-width="2.1"/>
    <path d="M120 820C420 500 690 420 970 530C1180 615 1360 610 1560 500" stroke="url(#orbAmber)" stroke-width="1.4"/>
  </g>

  <g fill="#CCFBF1" opacity="0.35">
    <circle cx="190" cy="180" r="2"/>
    <circle cx="320" cy="140" r="1.6"/>
    <circle cx="500" cy="110" r="1.8"/>
    <circle cx="660" cy="230" r="1.5"/>
    <circle cx="840" cy="300" r="1.7"/>
    <circle cx="1040" cy="280" r="1.4"/>
    <circle cx="1240" cy="240" r="1.9"/>
    <circle cx="1360" cy="380" r="1.6"/>
    <circle cx="1500" cy="320" r="1.5"/>
    <circle cx="980" cy="560" r="1.8"/>
    <circle cx="1180" cy="600" r="1.6"/>
    <circle cx="760" cy="660" r="1.7"/>
  </g>
</svg>
