<svg width="640" height="128" viewBox="0 0 640 128" fill="none" xmlns="http://www.w3.org/2000/svg" role="img" aria-labelledby="title desc">
  <title id="title">Datamitra Logo Light</title>
  <desc id="desc">Datamitra wordmark in white with geometric icon for dark backgrounds.</desc>
  <rect x="10" y="14" width="100" height="100" rx="24" fill="#CCFBF1"/>
  <path d="M32 77L52 57L70 75L92 45" stroke="#0A5954" stroke-width="8" stroke-linecap="round" stroke-linejoin="round"/>
  <circle cx="92" cy="45" r="7" fill="#F59E0B"/>
  <path d="M145 84V42H169C194 42 209 58 209 84C209 109 194 124 169 124H145V84ZM161 109H168C184 109 193 100 193 84C193 67 184 58 168 58H161V109Z" fill="#FFFFFF"/>
  <path d="M225 124V63H240V70C245 64 252 60 261 60C278 60 289 72 289 90V124H274V92C274 81 268 74 258 74C247 74 240 81 240 92V124H225Z" fill="#FFFFFF"/>
  <path d="M302 124V63H317V124H302ZM301 50C301 45 305 41 310 41C315 41 319 45 319 50C319 55 315 59 310 59C305 59 301 55 301 50Z" fill="#FFFFFF"/>
  <path d="M334 124V63H349V70C354 64 361 60 370 60C378 60 385 64 389 71C394 64 402 60 412 60C429 60 440 72 440 90V124H425V93C425 81 420 74 410 74C401 74 395 81 395 92V124H380V93C380 81 375 74 365 74C355 74 349 81 349 92V124H334Z" fill="#FFFFFF"/>
  <path d="M455 124V63H470V72C475 65 483 60 494 60C513 60 527 74 527 94C527 114 513 127 494 127C484 127 476 123 471 117V124H455ZM490 113C502 113 511 105 511 94C511 82 502 74 490 74C479 74 470 82 470 94C470 105 479 113 490 113Z" fill="#FFFFFF"/>
  <path d="M541 124V63H556V74C560 67 567 63 576 63H582V77H575C563 77 556 84 556 97V124H541Z" fill="#FFFFFF"/>
  <path d="M593 124V63H608V124H593ZM592 50C592 45 596 41 601 41C606 41 610 45 610 50C610 55 606 59 601 59C596 59 592 55 592 50Z" fill="#FFFFFF"/>
</svg>
